<svg width="34" height="31" viewBox="0 0 34 31" fill="none" xmlns="http://www.w3.org/2000/svg">
<path d="M32.9297 6.19534C32.4061 4.98298 31.6511 3.88436 30.707 2.96097C29.7622 2.03482 28.6483 1.29882 27.4258 0.792996C26.1581 0.266407 24.7985 -0.00313198 23.4258 2.74565e-05C21.5 2.74565e-05 19.6211 0.527371 17.9883 1.52346C17.5977 1.76175 17.2266 2.02347 16.875 2.30862C16.5234 2.02347 16.1523 1.76175 15.7617 1.52346C14.1289 0.527371 12.25 2.74565e-05 10.3242 2.74565e-05C8.9375 2.74565e-05 7.59375 0.265653 6.32422 0.792996C5.09766 1.30081 3.99219 2.03128 3.04297 2.96097C2.09764 3.88332 1.34249 4.9822 0.820312 6.19534C0.277344 7.45706 0 8.7969 0 10.1758C0 11.4766 0.265625 12.8321 0.792969 14.211C1.23438 15.3633 1.86719 16.5586 2.67578 17.7657C3.95703 19.6758 5.71875 21.668 7.90625 23.6875C11.5312 27.0352 15.1211 29.3477 15.2734 29.4414L16.1992 30.0352C16.6094 30.2969 17.1367 30.2969 17.5469 30.0352L18.4727 29.4414C18.625 29.3438 22.2109 27.0352 25.8398 23.6875C28.0273 21.668 29.7891 19.6758 31.0703 17.7657C31.8789 16.5586 32.5156 15.3633 32.9531 14.211C33.4805 12.8321 33.7461 11.4766 33.7461 10.1758C33.75 8.7969 33.4727 7.45706 32.9297 6.19534Z" fill="#84D6D6"/>
</svg>
