<svg width="35" height="27" viewBox="0 0 35 27" fill="none" xmlns="http://www.w3.org/2000/svg">
<path fill-rule="evenodd" clip-rule="evenodd" d="M0.625 1.3125C0.625 1.06386 0.723772 0.825403 0.899588 0.649588C1.0754 0.473772 1.31386 0.375 1.5625 0.375H33.4375C33.6861 0.375 33.9246 0.473772 34.1004 0.649588C34.2762 0.825403 34.375 1.06386 34.375 1.3125C34.375 1.56114 34.2762 1.7996 34.1004 1.97541C33.9246 2.15123 33.6861 2.25 33.4375 2.25H1.5625C1.31386 2.25 1.0754 2.15123 0.899588 1.97541C0.723772 1.7996 0.625 1.56114 0.625 1.3125ZM0.625 13.5C0.625 13.2514 0.723772 13.0129 0.899588 12.8371C1.0754 12.6613 1.31386 12.5625 1.5625 12.5625H33.4375C33.6861 12.5625 33.9246 12.6613 34.1004 12.8371C34.2762 13.0129 34.375 13.2514 34.375 13.5C34.375 13.7486 34.2762 13.9871 34.1004 14.1629C33.9246 14.3387 33.6861 14.4375 33.4375 14.4375H1.5625C1.31386 14.4375 1.0754 14.3387 0.899588 14.1629C0.723772 13.9871 0.625 13.7486 0.625 13.5ZM0.625 25.6875C0.625 25.4389 0.723772 25.2004 0.899588 25.0246C1.0754 24.8488 1.31386 24.75 1.5625 24.75H33.4375C33.6861 24.75 33.9246 24.8488 34.1004 25.0246C34.2762 25.2004 34.375 25.4389 34.375 25.6875C34.375 25.9361 34.2762 26.1746 34.1004 26.3504C33.9246 26.5262 33.6861 26.625 33.4375 26.625H1.5625C1.31386 26.625 1.0754 26.5262 0.899588 26.3504C0.723772 26.1746 0.625 25.9361 0.625 25.6875Z" fill="white"/>
</svg>
