<svg width="23" height="33" viewBox="0 0 23 33" fill="none" xmlns="http://www.w3.org/2000/svg">
<path d="M22.5015 0.158129C22.3581 0.0972011 22.2002 0.078676 22.0465 0.10475C21.8929 0.130823 21.75 0.200403 21.6347 0.305238L11.5 9.56985L1.36477 0.305238C1.24949 0.200568 1.10666 0.131092 0.953151 0.105023C0.799644 0.078954 0.641882 0.0973822 0.498516 0.158129C0.356379 0.216815 0.234732 0.316158 0.148828 0.443701C0.0629232 0.571244 0.0165856 0.72131 0.015625 0.875082V22.3591C0.015625 22.5756 0.106953 22.7813 0.268828 22.9295L10.952 32.6945C11.1017 32.8311 11.2973 32.9067 11.5 32.9061C11.6963 32.9061 11.8937 32.8355 12.048 32.6945L22.7312 22.9295C22.8925 22.7813 22.9844 22.5751 22.9844 22.3591V0.875082C22.9833 0.721343 22.9369 0.57134 22.851 0.443823C22.7651 0.316307 22.6435 0.216934 22.5015 0.158129ZM1.61797 22.0211V2.67813L10.952 11.211C10.9559 11.2148 10.9619 11.2159 10.9657 11.2198V30.5666L1.61797 22.0211ZM21.3815 22.0211L12.0343 30.566V11.2192C12.0387 11.2154 12.0441 11.2143 12.048 11.2105L21.3815 2.67813V22.0211Z" fill="#84D6D6"/>
</svg>
