<svg width="13" height="23" viewBox="0 0 13 23" fill="none" xmlns="http://www.w3.org/2000/svg">
<path d="M0.844825 1.78142L10.2843 11.465L0.844825 21.1487C0.675832 21.3217 0.581222 21.5539 0.581222 21.7958C0.581222 22.0377 0.675832 22.2699 0.844825 22.4429C0.926906 22.5267 1.02488 22.5932 1.133 22.6387C1.24113 22.6841 1.35723 22.7075 1.47451 22.7075C1.59179 22.7075 1.7079 22.6841 1.81602 22.6387C1.92415 22.5932 2.02212 22.5267 2.1042 22.4429L12.1482 12.1412C12.3245 11.9603 12.4232 11.7177 12.4232 11.465C12.4232 11.2124 12.3245 10.9698 12.1482 10.7889L2.10614 0.487173C2.024 0.402807 1.92578 0.335752 1.8173 0.289967C1.70882 0.244181 1.59226 0.220592 1.47451 0.220592C1.35676 0.220592 1.24021 0.244181 1.13172 0.289967C1.02324 0.335752 0.925029 0.402807 0.842887 0.487173C0.673893 0.660187 0.579285 0.892447 0.579285 1.1343C0.579285 1.37615 0.673893 1.60841 0.842887 1.78142H0.844825Z" fill="white"/>
</svg>
